<svg width="128" height="128" viewBox="0 0 128 128" fill="none" xmlns="http://www.w3.org/2000/svg">
  <rect width="128" height="128" rx="28" fill="#07C160"/>
  <path d="M49.579 31C28.272 31 11 45.904 11 64.281c0 10.576 5.753 20.006 14.731 26.155L20.58 104l16.847-8.932a45.23 45.23 0 0 0 12.152 1.637c21.307 0 38.579-14.903 38.579-33.281C88.158 45.904 70.886 31 49.58 31Zm-13.03 20.08c2.223 0 4.026 1.726 4.026 3.855 0 2.13-1.803 3.856-4.026 3.856-2.224 0-4.027-1.726-4.027-3.856 0-2.129 1.803-3.855 4.027-3.855Zm26.58 7.711c-2.223 0-4.027-1.726-4.027-3.856 0-2.129 1.804-3.855 4.027-3.855 2.224 0 4.027 1.726 4.027 3.855 0 2.13-1.803 3.856-4.027 3.856Z" fill="#fff"/>
  <path d="M82.807 49.043C68.447 49.043 56.807 58.944 56.807 71.155c0 12.21 11.64 22.111 26 22.111 4.228 0 8.218-.857 11.717-2.374L108.5 97l-4.618-11.29c5.164-4.02 8.425-9.116 8.425-14.555 0-12.211-11.64-22.112-25.5-22.112Zm-8.308 18.78c-1.617 0-2.928-1.19-2.928-2.66 0-1.468 1.311-2.658 2.928-2.658 1.618 0 2.929 1.19 2.929 2.659 0 1.468-1.311 2.659-2.929 2.659Zm16.615 0c-1.617 0-2.928-1.19-2.928-2.66 0-1.468 1.311-2.658 2.928-2.658 1.618 0 2.929 1.19 2.929 2.659 0 1.468-1.311 2.659-2.929 2.659Z" fill="#D6F8E4"/>
</svg>
